<svg width="128" height="128" viewBox="0 0 128 128" fill="none" xmlns="http://www.w3.org/2000/svg">
<rect x="2" y="2" width="124" height="124" rx="22" fill="#1BD96A" stroke="#1DCC65" stroke-width="4"/>
<path d="M63.2999 21.7594H63.6272C71.5191 21.7594 78.904 23.9171 85.2295 27.673L85.0359 27.5639C91.6218 31.4147 96.9546 36.7475 100.696 43.1293L100.805 43.3335C104.466 49.5603 106.628 57.0474 106.628 65.0378C106.628 84.0669 94.3674 100.238 77.3165 106.074L77.0103 106.165C76.7885 106.236 76.5351 106.275 76.2746 106.275C75.7044 106.275 75.1764 106.084 74.7504 105.768L74.7575 105.771C74.3069 105.366 74.0253 104.782 74.0253 104.131C74.0253 104.113 74.0253 104.096 74.0253 104.082V104.085C74.0253 103.972 74.0347 102.534 74.0535 99.7696C74.0723 97.0052 74.0817 94.4779 74.0817 92.1875C74.1063 91.9235 74.1204 91.6208 74.1204 91.3111C74.1204 88.5232 72.9834 86.0029 71.1495 84.1831C73.3248 83.9683 75.289 83.6093 77.1968 83.1095L76.9293 83.1693C78.9463 82.6061 80.7063 81.8563 82.3396 80.9095L82.2304 80.9693C84.0186 79.9837 85.5322 78.7306 86.7783 77.2451L86.7994 77.2205C88.1088 75.545 89.1332 73.5738 89.7562 71.4301L89.7879 71.3069C90.5236 68.9027 90.946 66.1395 90.946 63.2778C90.946 63.1194 90.946 62.9575 90.9424 62.7991V62.8237C90.9424 62.7463 90.946 62.6583 90.946 62.5703C90.946 58.1773 89.2493 54.1821 86.4791 51.2007L86.4896 51.2112C87.081 49.6624 87.4224 47.8743 87.4224 46.0051C87.4224 43.7207 86.912 41.5594 86.0004 39.6199L86.0391 39.7114C85.6343 39.6339 85.1732 39.5882 84.698 39.5882C83.5223 39.5882 82.4135 39.8627 81.4279 40.3485L81.4701 40.3309C79.4708 41.0701 77.7601 41.9079 76.1479 42.8864L76.2817 42.809L74.138 44.1607C70.8925 43.2314 67.1648 42.6963 63.314 42.6963C59.4631 42.6963 55.7354 43.2314 52.2013 44.2311L52.4864 44.1607C51.8857 43.7476 51.0867 43.2396 50.0893 42.6365C48.7764 41.8832 47.224 41.1546 45.6119 40.5421L45.3796 40.4647C44.3482 39.9226 43.1268 39.6058 41.8279 39.6058C41.3914 39.6058 40.962 39.641 40.5466 39.7114L40.5924 39.7043C39.7194 41.5488 39.209 43.7136 39.209 45.9981C39.209 47.8672 39.5504 49.6589 40.177 51.3098L40.1418 51.2077C37.3786 54.1786 35.6855 58.1738 35.6855 62.5667C35.6855 62.6547 35.6855 62.7463 35.689 62.8343V62.8202C35.6855 62.9575 35.6855 63.1159 35.6855 63.2778C35.6855 66.1255 36.1079 68.8781 36.8964 71.4688L36.8436 71.2682C37.5088 73.5315 38.5191 75.4992 39.8356 77.2275L39.8039 77.1818C41.05 78.713 42.5565 79.9731 44.2637 80.92L44.3412 80.9587C45.8618 81.8458 47.6253 82.5955 49.4804 83.12L49.6423 83.1587C51.2826 83.5987 53.2468 83.9578 55.2567 84.1584L55.4186 84.1725C53.9015 85.6791 52.8912 87.6925 52.6589 89.9383L52.6554 89.9805C51.9268 90.336 51.0784 90.6247 50.1949 90.8112L50.121 90.8253C49.2199 91.0048 48.1885 91.1069 47.129 91.1069C47.0516 91.1069 46.9741 91.1069 46.8967 91.1069H46.9072C45.5204 91.0787 44.2461 90.6282 43.1936 89.8819L43.2148 89.896C41.9088 88.9843 40.8528 87.8016 40.1136 86.4253L40.089 86.3725C39.392 85.1898 38.4733 84.2112 37.3856 83.4615L37.354 83.4403C36.562 82.8455 35.6292 82.3808 34.6224 82.1027L34.5661 82.0887L33.4397 81.9197C33.3588 81.9127 33.2637 81.9091 33.1687 81.9091C32.6759 81.9091 32.2077 82.0077 31.7818 82.1802L31.8064 82.1696C31.5061 82.3386 31.4122 82.5545 31.5248 82.8173C31.6621 83.12 31.8311 83.3805 32.0352 83.6093L32.0317 83.6058C32.2464 83.8592 32.4893 84.081 32.7533 84.2746L32.7639 84.2816L33.1581 84.5632C34.1543 85.0842 34.9744 85.8093 35.5975 86.6858L35.6116 86.7069C36.2839 87.5411 36.8752 88.4845 37.3504 89.4947L37.3856 89.5792L37.9488 90.8746C38.424 92.2896 39.2864 93.4723 40.4128 94.3277L40.4304 94.3418C41.4864 95.1655 42.7607 95.7568 44.1511 96.0243L44.2074 96.0314C45.369 96.2567 46.7207 96.3975 48.1005 96.4256H48.1252C48.2836 96.4327 48.4666 96.4327 48.6532 96.4327C49.5719 96.4327 50.473 96.3587 51.353 96.2144L51.258 96.2285L52.5533 96.0032C52.5533 97.4323 52.5627 99.0961 52.5815 100.995C52.6003 102.893 52.6096 103.917 52.6096 104.068V104.117C52.6096 104.768 52.328 105.352 51.8775 105.757C51.4586 106.07 50.9306 106.26 50.3568 106.26C50.0928 106.26 49.8394 106.222 49.6036 106.148L49.6212 106.151C32.2711 100.206 20.0215 84.0352 20.0215 65.0026C20.0215 57.0192 22.1757 49.5392 25.9386 43.1117L25.826 43.3159C29.6768 36.7299 35.0096 31.3971 41.3914 27.6554L41.5956 27.5463C47.7168 23.9066 55.0948 21.7559 62.9725 21.7559H63.3175H63.2999V21.7594ZM36.4071 83.9437C36.5197 83.6809 36.3883 83.4556 36.0128 83.2679C35.6374 83.1552 35.3933 83.1928 35.2807 83.3805C35.168 83.6433 35.2995 83.8686 35.6749 84.0563C36.0128 84.2816 36.2569 84.2441 36.4071 83.9437ZM38.1565 85.8621C38.4194 85.6744 38.3818 85.374 38.0439 84.961C37.6684 84.6231 37.368 84.5667 37.1428 84.792C36.8799 84.9797 36.9175 85.2801 37.2554 85.6931C37.6285 86.0616 37.9289 86.1167 38.1565 85.8586V85.8621ZM39.8461 88.3965C40.184 88.1337 40.184 87.777 39.8461 87.3264C39.5458 86.8383 39.2266 86.7257 38.8887 86.9885C38.5508 87.1762 38.5508 87.5141 38.8887 88.0023C39.2266 88.4904 39.5458 88.6218 39.8461 88.3965ZM42.2116 90.7655C42.5119 90.4651 42.4368 90.1084 41.9863 89.6954C41.5357 89.2448 41.1603 89.1885 40.8599 89.5264C40.522 89.8268 40.5971 90.1835 41.0852 90.5965C41.5357 91.0471 41.9112 91.0987 42.2116 90.7514V90.7655ZM45.4253 92.1735C45.538 91.7604 45.2939 91.4601 44.6932 91.2723C44.13 91.1221 43.7733 91.2536 43.6231 91.6666C43.4729 92.0796 43.717 92.3612 44.3552 92.5114C44.9184 92.739 45.2751 92.6264 45.4253 92.1735ZM48.977 92.4551C48.977 91.9669 48.6579 91.7604 48.0196 91.8355C47.4188 91.8355 47.1184 92.042 47.1184 92.4551C47.1184 92.9432 47.4376 93.1497 48.0759 93.0746C48.6766 93.0769 48.977 92.8681 48.977 92.4551ZM52.2471 91.8919C52.172 91.4788 51.8341 91.3099 51.2333 91.385C50.6326 91.4976 50.3698 91.7792 50.4448 92.2298C50.5199 92.6803 50.8579 92.8305 51.4586 92.6803C52.0594 92.5301 52.3198 92.2673 52.2471 91.8919Z" fill="white"/>
</svg>
